
<svg version="1.1" viewBox="0.0 0.0 960.0 540.0" fill="none" stroke="none" stroke-linecap="square" stroke-miterlimit="10" xmlns:xlink="http://www.w3.org/1999/xlink" xmlns="http://www.w3.org/2000/svg"><clipPath id="p.0"><path d="m0 0l960.0 0l0 540.0l-960.0 0l0 -540.0z" clip-rule="nonzero"/></clipPath><g clip-path="url(#p.0)"><path fill="#000000" fill-opacity="0.0" d="m0 0l960.0 0l0 540.0l-960.0 0z" fill-rule="evenodd"/><path fill="#111111" d="m0 0.0131233595l960.0 0l0 540.0l-960.0 0z" fill-rule="evenodd"/><g filter="url(#shadowFilter-p.1)"><use xlink:href="#p.1" transform="matrix(1.0 0.0 0.0 1.0 0.0 2.0)"/></g><defs><filter id="shadowFilter-p.1" filterUnits="userSpaceOnUse"><feGaussianBlur in="SourceAlpha" stdDeviation="2.0" result="blur"/><feComponentTransfer in="blur" color-interpolation-filters="sRGB"><feFuncR type="linear" slope="0" intercept="0.0"/><feFuncG type="linear" slope="0" intercept="0.0"/><feFuncB type="linear" slope="0" intercept="0.0"/><feFuncA type="linear" slope="0.5" intercept="0"/></feComponentTransfer></filter></defs><g id="p.1"><path fill="#000000" fill-opacity="0.0" d="m701.20734 214.78477l0 0c0 46.92247 37.939453 84.96062 84.74017 84.96062l0 0c22.474487 0 44.028503 -8.951172 59.92035 -24.884369c15.891846 -15.933228 24.819824 -37.54329 24.819824 -60.07625l0 0c0 -46.922455 -37.939453 -84.96063 -84.74017 -84.96063l0 0c-46.80072 0 -84.74017 38.038177 -84.74017 84.96063z" fill-rule="evenodd"/><path stroke="#ffffff" stroke-width="12.0" stroke-linejoin="round" stroke-linecap="butt" d="m701.20734 214.78477l0 0c0 46.92247 37.939453 84.96062 84.74017 84.96062l0 0c22.474487 0 44.028503 -8.951172 59.92035 -24.884369c15.891846 -15.933228 24.819824 -37.54329 24.819824 -60.07625l0 0c0 -46.922455 -37.939453 -84.96063 -84.74017 -84.96063l0 0c-46.80072 0 -84.74017 38.038177 -84.74017 84.96063z" fill-rule="evenodd"/></g><g filter="url(#shadowFilter-p.2)"><use xlink:href="#p.2" transform="matrix(1.0 0.0 0.0 1.0 0.0 2.0)"/></g><defs><filter id="shadowFilter-p.2" filterUnits="userSpaceOnUse"><feGaussianBlur in="SourceAlpha" stdDeviation="2.0" result="blur"/><feComponentTransfer in="blur" color-interpolation-filters="sRGB"><feFuncR type="linear" slope="0" intercept="0.0"/><feFuncG type="linear" slope="0" intercept="0.0"/><feFuncB type="linear" slope="0" intercept="0.0"/><feFuncA type="linear" slope="0.5" intercept="0"/></feComponentTransfer></filter></defs><g id="p.2"><path fill="#000000" fill-opacity="0.0" d="m116.146935 229.89664l0 83.625275l11.477783 0l0 -28.257996l9.838097 -10.568024l26.720749 38.82602l13.664032 0l-32.975845 -47.039215l30.911057 -36.58606l-13.664032 0l-25.931274 30.727692l-8.562782 10.108551l0 -40.836243z" fill-rule="evenodd"/><path fill="#000000" fill-opacity="0.0" d="m220.29715 228.80537c-1.0526276 0 -1.9973145 0.14677429 -2.834015 0.44032288c-0.8232269 0.28079224 -1.4979858 0.67007446 -2.0243073 1.1678467c-0.6477661 0.5743561 -1.1268616 1.2635651 -1.4372406 2.0676575c-0.29690552 0.8040924 -0.44535828 1.6656189 -0.44535828 2.5845795c0 1.7230377 0.5533142 3.1589203 1.6599274 4.307617c1.1201172 1.1486969 2.8137817 1.723053 5.0809937 1.723053c2.2267303 0 3.9069061 -0.5743561 5.040512 -1.723053c1.133606 -1.1486969 1.7004089 -2.5845795 1.7004089 -4.307617c0 -0.95726013 -0.16194153 -1.8379211 -0.48583984 -2.6420135c-0.32388306 -0.8040924 -0.80970764 -1.4741669 -1.457489 -2.0102234c-0.5263214 -0.49777222 -1.1943359 -0.88705444 -2.0040588 -1.1678467c-0.8097229 -0.29354858 -1.7408905 -0.44032288 -2.7935333 -0.44032288zm-27.631683 22.57193l0 9.247025l22.348267 0l0 43.708008l-22.348267 0l0 9.189575l55.020462 0l0 -9.189575l-21.437332 0l0 -52.955032z" fill-rule="evenodd"/><path fill="#000000" fill-opacity="0.0" d="m292.2003 258.9587c3.1174011 0 5.8367004 0.6253967 8.157928 1.8762207c2.3346863 1.2380371 4.291504 2.9100342 5.870453 5.015991c1.5384827 2.1059265 2.6990662 4.55011 3.4818115 7.3325195c0.7962036 2.7696533 1.1943359 5.6669006 1.1943359 8.6918335l0 1.2635498c0 3.063202 -0.38464355 5.9859924 -1.1538696 8.768402c-0.7692261 2.7696533 -1.9230652 5.207428 -3.4615479 7.313385c-1.578949 2.105957 -3.5357666 3.771576 -5.870453 4.9968567c-2.321228 1.2252808 -5.0202637 1.8378906 -8.0971985 1.8378906c-3.1174316 0 -5.8502502 -0.61260986 -8.198425 -1.8378906c-2.348175 -1.2252808 -4.291504 -2.8908997 -5.8299866 -4.9968567c-1.578949 -2.105957 -2.7530518 -4.5437317 -3.5222778 -7.313385c-0.7692261 -2.7824097 -1.1538391 -5.7052 -1.1538391 -8.768402l0 -1.2635498c0 -3.0249329 0.38461304 -5.92218 1.1538391 -8.6918335c0.7692261 -2.7824097 1.9433289 -5.226593 3.5222778 -7.3325195c1.5384827 -2.105957 3.4615479 -3.777954 5.7692566 -5.015991c2.3077087 -1.250824 5.0202637 -1.8762207 8.137695 -1.8762207zm0 -8.730103c-4.6154175 0 -8.765228 0.81684875 -12.449463 2.4505615c-3.684204 1.6209412 -6.8016357 3.8481445 -9.352264 6.6815796c-2.591095 2.8334656 -4.5749207 6.1774597 -5.9514465 10.031982c-1.3764954 3.8417664 -2.0647583 8.002594 -2.0647583 12.482544l0 1.2635498c0 4.4799194 0.68826294 8.634399 2.0647583 12.463379c1.3765259 3.82901 3.3603516 7.160248 5.9514465 9.993683c2.5506287 2.8334656 5.674774 5.054291 9.372528 6.6624756c3.7112122 1.6081543 7.894745 2.412262 12.550659 2.412262c4.615387 0 8.765198 -0.80410767 12.449432 -2.412262c3.6842346 -1.6081848 6.8218994 -3.82901 9.412994 -6.6624756c2.5506287 -2.833435 4.5141907 -6.164673 5.8907166 -9.993683c1.3765259 -3.8289795 2.0647888 -7.9834595 2.0647888 -12.463379l0 -1.2635498c0 -4.47995 -0.68826294 -8.640778 -2.0647888 -12.482544c-1.3765259 -3.8545227 -3.340088 -7.198517 -5.8907166 -10.031982c-2.591095 -2.833435 -5.742279 -5.0606384 -9.453491 -6.6815796c-3.6977234 -1.6337128 -7.8745117 -2.4505615 -12.5303955 -2.4505615z" fill-rule="evenodd"/><path fill="#000000" fill-opacity="0.0" d="m368.1115 250.2286c-3.7651978 0 -7.220001 0.47862244 -10.36441 1.4358673c-3.1309204 0.9572449 -5.8299866 2.2591095 -8.0971985 3.9055786c-2.267212 1.6464691 -4.028351 3.5737457 -5.2834167 5.781784c-1.2550659 2.195282 -1.8825989 4.5565186 -1.8825989 7.0836487c0 2.5654297 0.6072693 4.8181458 1.8218689 6.7581787c1.2145691 1.9272461 2.9352417 3.5992432 5.161957 5.015991c2.1862488 1.4550171 4.824585 2.6994324 7.9150085 3.7332764c3.1039429 1.0338135 6.5384827 1.9144897 10.30368 2.6419983c3.0769348 0.5743408 5.6477966 1.2189026 7.7125854 1.9336243c2.0647888 0.70199585 3.724701 1.4741821 4.979767 2.3165588c1.2550659 0.8423767 2.1457825 1.7741089 2.6720886 2.795166c0.52630615 1.0083008 0.78948975 2.144226 0.78948975 3.4078064c0 0.99554443 -0.20245361 1.9336548 -0.6072998 2.8143005c-0.4048767 0.88067627 -0.99191284 1.6847839 -1.7611389 2.4122925c-1.2550659 1.1869812 -2.9959717 2.1186829 -5.222687 2.795166c-2.2267456 0.6636658 -4.8380737 0.9955139 -7.8340454 0.9955139c-1.902832 0 -3.8259277 -0.19143677 -5.7692566 -0.5743408c-1.9433289 -0.38290405 -3.7044678 -1.0338135 -5.2834167 -1.9527893c-1.6194458 -0.9189453 -2.9689636 -2.1250916 -4.0486145 -3.6184082c-1.0661316 -1.4932861 -1.6801453 -3.3312073 -1.842102 -5.513733l-11.234863 0c0 2.6419983 0.63427734 5.1882935 1.902832 7.6388245c1.282074 2.4505615 3.1376648 4.594818 5.5668335 6.4327393c2.3886719 1.8761902 5.3239136 3.3822632 8.805695 4.518219c3.4818115 1.123169 7.4494324 1.6847534 11.902893 1.6847534c3.8866577 0 7.4696655 -0.44033813 10.749023 -1.3210144c3.279358 -0.88067627 6.0931396 -2.1250916 8.441345 -3.7332764c2.348175 -1.6081848 4.1767883 -3.541809 5.48584 -5.800934c1.3225403 -2.2590942 1.9838257 -4.76709 1.9838257 -7.5239563c0 -2.5654297 -0.58032227 -4.8245544 -1.7409058 -6.7773438c-1.1470947 -1.9527893 -2.8137817 -3.6758423 -5.0000305 -5.1691284c-2.1862488 -1.4550171 -4.8785706 -2.705841 -8.076935 -3.752411c-3.1983948 -1.0593872 -6.8218994 -1.9910889 -10.870514 -2.795166c-3.0769348 -0.57437134 -5.6207886 -1.1678467 -7.631592 -1.7804871c-1.9973145 -0.6126404 -3.5830078 -1.3018799 -4.7571106 -2.0676575c-1.2145691 -0.7658081 -2.0647888 -1.6273499 -2.5506287 -2.5845947c-0.48580933 -0.9572449 -0.72872925 -2.0484924 -0.72872925 -3.2737732c0 -1.1870117 0.3036499 -2.3356934 0.9109192 -3.446106c0.6072998 -1.1104126 1.518219 -2.086792 2.7328186 -2.9291687c1.1740723 -0.8424072 2.6585693 -1.5124817 4.4534607 -2.0102234c1.8083801 -0.49777222 3.9068909 -0.7466736 6.2955627 -0.7466736c2.3077087 0 4.379242 0.30633545 6.2145996 0.91897583c1.848877 0.6126404 3.4210815 1.4167175 4.716614 2.412262c1.2955627 0.99554443 2.3077087 2.137848 3.0364685 3.426941c0.72872925 1.2763367 1.0931091 2.5845642 1.0931091 3.9247131l11.234863 0c0 -2.718567 -0.6207886 -5.2521057 -1.8623657 -7.6005554c-1.2280579 -2.361206 -2.975708 -4.4224854 -5.24292 -6.1838226c-2.267212 -1.7613373 -5.0202637 -3.1397705 -8.259155 -4.135315c-3.238861 -0.9955292 -6.882599 -1.4933014 -10.931213 -1.4933014z" fill-rule="evenodd"/><path fill="#000000" fill-opacity="0.0" d="m414.93356 225.30183l0 88.22008l11.295593 0l0 -21.480652l8.259155 -7.523987l24.109406 29.004639l14.271301 0l-30.668152 -36.241455l26.599304 -25.903152l-13.664032 0l-21.558777 20.446854l-7.3482056 7.466522l0 -53.988846z" fill-rule="evenodd"/><path fill="#000000" fill-opacity="0.0" d="m562.0799 229.89664l0 83.625275l10.5668335 0l0 -38.653717l36.25525 0l0 38.653717l10.627563 0l0 -83.625275l-10.627563 0l0 35.954285l-36.25525 0l0 -35.954285z" fill-rule="evenodd"/><path fill="#000000" fill-opacity="0.0" d="m665.37994 258.9587c3.1173706 0 5.83667 0.6253967 8.157898 1.8762207c2.3346558 1.2380371 4.291504 2.9100342 5.8704834 5.015991c1.5384521 2.1059265 2.6990356 4.55011 3.4817505 7.3325195c0.79626465 2.7696533 1.194397 5.6669006 1.194397 8.6918335l0 1.2635498c0 3.063202 -0.38464355 5.9859924 -1.1538696 8.768402c-0.7692261 2.7696533 -1.9230957 5.207428 -3.4615479 7.313385c-1.5789795 2.105957 -3.5358276 3.771576 -5.8704834 4.9968567c-2.321228 1.2252808 -5.0202637 1.8378906 -8.097229 1.8378906c-3.1173706 0 -5.8502197 -0.61260986 -8.198364 -1.8378906c-2.3482056 -1.2252808 -4.291565 -2.8908997 -5.830017 -4.9968567c-1.5789185 -2.105957 -2.7530518 -4.5437317 -3.5222778 -7.313385c-0.7692261 -2.7824097 -1.1538696 -5.7052 -1.1538696 -8.768402l0 -1.2635498c0 -3.0249329 0.38464355 -5.92218 1.1538696 -8.6918335c0.7692261 -2.7824097 1.9433594 -5.226593 3.5222778 -7.3325195c1.5384521 -2.105957 3.4615479 -3.777954 5.769287 -5.015991c2.3076782 -1.250824 5.0202637 -1.8762207 8.137695 -1.8762207zm0 -8.730103c-4.6154175 0 -8.765259 0.81684875 -12.449463 2.4505615c-3.6842651 1.6209412 -6.8016357 3.8481445 -9.352295 6.6815796c-2.5910645 2.8334656 -4.57489 6.1774597 -5.951416 10.031982c-1.3765259 3.8417664 -2.0648193 8.002594 -2.0648193 12.482544l0 1.2635498c0 4.4799194 0.68829346 8.634399 2.0648193 12.463379c1.3765259 3.82901 3.3603516 7.160248 5.951416 9.993683c2.5506592 2.8334656 5.6748047 5.054291 9.372498 6.6624756c3.7112427 1.6081543 7.8947754 2.412262 12.550659 2.412262c4.6154175 0 8.765259 -0.80410767 12.449463 -2.412262c3.684204 -1.6081848 6.8218994 -3.82901 9.413025 -6.6624756c2.5505981 -2.833435 4.51416 -6.164673 5.890686 -9.993683c1.3765259 -3.8289795 2.0647583 -7.9834595 2.0647583 -12.463379l0 -1.2635498c0 -4.47995 -0.6882324 -8.640778 -2.0647583 -12.482544c-1.3765259 -3.8545227 -3.340088 -7.198517 -5.890686 -10.031982c-2.5911255 -2.833435 -5.7423096 -5.0606384 -9.453491 -6.6815796c-3.697754 -1.6337128 -7.8745117 -2.4505615 -12.5303955 -2.4505615z" fill-rule="evenodd"/><path fill="#000000" fill-opacity="0.0" d="m731.9389 250.2286c-3.0769653 0.0382843 -5.701782 0.67007446 -7.8745728 1.8953552c-2.1592407 1.2252808 -3.9068604 2.929184 -5.24292 5.1116943l-0.3036499 -5.8583527l-10.080994 0l0 62.144608l10.688293 0l0 -49.451477c0.24291992 -0.6126404 0.5532837 -1.1870117 0.9312134 -1.723053c0.39135742 -0.5360718 0.8501587 -1.014679 1.3765259 -1.4358826c0.6882324 -0.53604126 1.5249634 -0.9444885 2.5101318 -1.2252808c0.9985962 -0.29354858 2.1659546 -0.44033813 3.5020142 -0.44033813c1.2145996 0 2.2739258 0.14678955 3.1781616 0.44033813c0.9176636 0.28079224 1.6801758 0.72750854 2.2874146 1.3401489c0.64782715 0.65093994 1.1201172 1.4741821 1.4170532 2.469696c0.31036377 0.99554443 0.46557617 2.1442566 0.46557617 3.446106l0 46.579742l10.688293 0l0 -46.52231c0 -0.22973633 0 -0.42755127 0 -0.59347534c0 -0.17871094 0 -0.36376953 0 -0.5552063c0.12145996 -0.9572754 0.36437988 -1.8251648 0.72875977 -2.6037292c0.36437988 -0.7913208 0.87042236 -1.4933167 1.5181885 -2.105957c0.64782715 -0.5743408 1.4575195 -1.0338135 2.4291992 -1.378418c0.9716797 -0.344635 2.1254883 -0.51693726 3.4615479 -0.51693726c1.2550659 0 2.3549194 0.15316772 3.2996216 0.45950317c0.9581299 0.30630493 1.7611084 0.7657776 2.4088745 1.378418c0.6072998 0.65093994 1.072876 1.4741821 1.3967896 2.469696c0.32391357 0.99554443 0.48583984 2.1442566 0.48583984 3.446106l0 46.52231l10.688293 0l0 -46.40744c0 -2.9866028 -0.36437988 -5.5775757 -1.0931396 -7.7728577c-0.72869873 -2.2080383 -1.7813721 -4.001297 -3.157898 -5.3797455c-1.2550659 -1.2252655 -2.793518 -2.1506042 -4.6154175 -2.7760162c-1.8218384 -0.63816833 -3.866394 -0.9572449 -6.133606 -0.9572449c-1.6599121 0.0382843 -3.1916504 0.24888611 -4.595154 0.6317749c-1.3900146 0.38290405 -2.6518555 0.89982605 -3.7854614 1.5507507c-0.89068604 0.5743408 -1.7206421 1.2444153 -2.4898682 2.0102234c-0.7692261 0.76579285 -1.4372559 1.5890198 -2.0040894 2.469696c-0.4453125 -0.9572449 -0.9851074 -1.8187714 -1.6193848 -2.5845642c-0.6207886 -0.7658081 -1.3157959 -1.4167328 -2.085083 -1.9527893c-1.0526123 -0.68922424 -2.2807007 -1.2125092 -3.684204 -1.5698853c-1.3900146 -0.3701477 -2.9554443 -0.5552063 -4.69635 -0.5552063z" fill-rule="evenodd"/><path fill="#000000" fill-opacity="0.0" d="m815.5627 258.9587c2.8745117 0 5.350952 0.49777222 7.429199 1.4933167c2.0917969 0.99554443 3.8259277 2.2973938 5.2024536 3.9055786c1.3765259 1.6081848 2.4494019 3.5162964 3.218628 5.7243347c0.7692261 2.1953125 1.1538696 4.250183 1.1538696 6.1647034l0 0.51690674l-35.3443 0c0.44537354 -2.8717346 1.2213135 -5.4052734 2.327942 -7.6005554c1.1201172 -2.2080688 2.4899292 -4.077881 4.109375 -5.609497c1.6193848 -1.4932861 3.4412842 -2.629242 5.465576 -3.4078064c2.024292 -0.7913208 4.170044 -1.1869812 6.437256 -1.1869812zm0 -8.730103c-3.7651978 0 -7.442688 0.72750854 -11.03241 2.1825256c-3.576294 1.4550171 -6.7611694 3.5418243 -9.5546875 6.2604065c-2.8340454 2.7568665 -5.1012573 6.1200256 -6.8016357 10.0894165c-1.7004395 3.9566345 -2.5506592 8.442932 -2.5506592 13.458923l0 2.412262c0 4.3267517 0.7692261 8.328064 2.3077393 12.003906c1.5384521 3.6758423 3.684204 6.8539124 6.437256 9.53421c2.7530518 2.6802979 6.059387 4.76709 9.919067 6.2604065c3.873169 1.4932861 8.117432 2.2399597 12.732849 2.2399597c6.3967896 0 11.767944 -1.2125244 16.113403 -3.6375427c4.359009 -2.4378052 7.631653 -5.226593 9.817871 -8.366364l-6.8623657 -5.054291c-2.0648193 2.5271606 -4.655884 4.5565186 -7.7733154 6.0881042c-3.1174316 1.5316162 -6.680176 2.2973938 -10.688293 2.2973938c-3.036438 0 -5.8097534 -0.53604126 -8.319885 -1.6081543c-2.5101318 -1.0721436 -4.655884 -2.5462952 -6.437256 -4.422516c-1.7409058 -1.761322 -3.1107178 -3.79068 -4.109375 -6.0881042c-0.9851074 -2.2973938 -1.6193848 -4.9585266 -1.902832 -7.983429l0 -0.4020691l46.943542 0l0 -4.76709c0 -4.326782 -0.58032227 -8.3471985 -1.7409058 -12.06134c-1.1470947 -3.7141418 -2.8947754 -6.9496155 -5.24292 -9.706512c-2.3482056 -2.718567 -5.296936 -4.850052 -8.846191 -6.3944244c-3.5357666 -1.5571136 -7.672119 -2.335678 -12.408997 -2.335678z" fill-rule="evenodd"/><path stroke="#ffffff" stroke-width="4.0" stroke-linejoin="round" stroke-linecap="butt" d="m116.146935 229.89664l0 83.625275l11.477783 0l0 -28.257996l9.838097 -10.568024l26.720749 38.82602l13.664032 0l-32.975845 -47.039215l30.911057 -36.58606l-13.664032 0l-25.931274 30.727692l-8.562782 10.108551l0 -40.836243z" fill-rule="evenodd"/><path stroke="#ffffff" stroke-width="4.0" stroke-linejoin="round" stroke-linecap="butt" d="m220.29715 228.80537c-1.0526276 0 -1.9973145 0.14677429 -2.834015 0.44032288c-0.8232269 0.28079224 -1.4979858 0.67007446 -2.0243073 1.1678467c-0.6477661 0.5743561 -1.1268616 1.2635651 -1.4372406 2.0676575c-0.29690552 0.8040924 -0.44535828 1.6656189 -0.44535828 2.5845795c0 1.7230377 0.5533142 3.1589203 1.6599274 4.307617c1.1201172 1.1486969 2.8137817 1.723053 5.0809937 1.723053c2.2267303 0 3.9069061 -0.5743561 5.040512 -1.723053c1.133606 -1.1486969 1.7004089 -2.5845795 1.7004089 -4.307617c0 -0.95726013 -0.16194153 -1.8379211 -0.48583984 -2.6420135c-0.32388306 -0.8040924 -0.80970764 -1.4741669 -1.457489 -2.0102234c-0.5263214 -0.49777222 -1.1943359 -0.88705444 -2.0040588 -1.1678467c-0.8097229 -0.29354858 -1.7408905 -0.44032288 -2.7935333 -0.44032288zm-27.631683 22.57193l0 9.247025l22.348267 0l0 43.708008l-22.348267 0l0 9.189575l55.020462 0l0 -9.189575l-21.437332 0l0 -52.955032z" fill-rule="evenodd"/><path stroke="#ffffff" stroke-width="4.0" stroke-linejoin="round" stroke-linecap="butt" d="m292.2003 258.9587c3.1174011 0 5.8367004 0.6253967 8.157928 1.8762207c2.3346863 1.2380371 4.291504 2.9100342 5.870453 5.015991c1.5384827 2.1059265 2.6990662 4.55011 3.4818115 7.3325195c0.7962036 2.7696533 1.1943359 5.6669006 1.1943359 8.6918335l0 1.2635498c0 3.063202 -0.38464355 5.9859924 -1.1538696 8.768402c-0.7692261 2.7696533 -1.9230652 5.207428 -3.4615479 7.313385c-1.578949 2.105957 -3.5357666 3.771576 -5.870453 4.9968567c-2.321228 1.2252808 -5.0202637 1.8378906 -8.0971985 1.8378906c-3.1174316 0 -5.8502502 -0.61260986 -8.198425 -1.8378906c-2.348175 -1.2252808 -4.291504 -2.8908997 -5.8299866 -4.9968567c-1.578949 -2.105957 -2.7530518 -4.5437317 -3.5222778 -7.313385c-0.7692261 -2.7824097 -1.1538391 -5.7052 -1.1538391 -8.768402l0 -1.2635498c0 -3.0249329 0.38461304 -5.92218 1.1538391 -8.6918335c0.7692261 -2.7824097 1.9433289 -5.226593 3.5222778 -7.3325195c1.5384827 -2.105957 3.4615479 -3.777954 5.7692566 -5.015991c2.3077087 -1.250824 5.0202637 -1.8762207 8.137695 -1.8762207zm0 -8.730103c-4.6154175 0 -8.765228 0.81684875 -12.449463 2.4505615c-3.684204 1.6209412 -6.8016357 3.8481445 -9.352264 6.6815796c-2.591095 2.8334656 -4.5749207 6.1774597 -5.9514465 10.031982c-1.3764954 3.8417664 -2.0647583 8.002594 -2.0647583 12.482544l0 1.2635498c0 4.4799194 0.68826294 8.634399 2.0647583 12.463379c1.3765259 3.82901 3.3603516 7.160248 5.9514465 9.993683c2.5506287 2.8334656 5.674774 5.054291 9.372528 6.6624756c3.7112122 1.6081543 7.894745 2.412262 12.550659 2.412262c4.615387 0 8.765198 -0.80410767 12.449432 -2.412262c3.6842346 -1.6081848 6.8218994 -3.82901 9.412994 -6.6624756c2.5506287 -2.833435 4.5141907 -6.164673 5.8907166 -9.993683c1.3765259 -3.8289795 2.0647888 -7.9834595 2.0647888 -12.463379l0 -1.2635498c0 -4.47995 -0.68826294 -8.640778 -2.0647888 -12.482544c-1.3765259 -3.8545227 -3.340088 -7.198517 -5.8907166 -10.031982c-2.591095 -2.833435 -5.742279 -5.0606384 -9.453491 -6.6815796c-3.6977234 -1.6337128 -7.8745117 -2.4505615 -12.5303955 -2.4505615z" fill-rule="evenodd"/><path stroke="#ffffff" stroke-width="4.0" stroke-linejoin="round" stroke-linecap="butt" d="m368.1115 250.2286c-3.7651978 0 -7.220001 0.47862244 -10.36441 1.4358673c-3.1309204 0.9572449 -5.8299866 2.2591095 -8.0971985 3.9055786c-2.267212 1.6464691 -4.028351 3.5737457 -5.2834167 5.781784c-1.2550659 2.195282 -1.8825989 4.5565186 -1.8825989 7.0836487c0 2.5654297 0.6072693 4.8181458 1.8218689 6.7581787c1.2145691 1.9272461 2.9352417 3.5992432 5.161957 5.015991c2.1862488 1.4550171 4.824585 2.6994324 7.9150085 3.7332764c3.1039429 1.0338135 6.5384827 1.9144897 10.30368 2.6419983c3.0769348 0.5743408 5.6477966 1.2189026 7.7125854 1.9336243c2.0647888 0.70199585 3.724701 1.4741821 4.979767 2.3165588c1.2550659 0.8423767 2.1457825 1.7741089 2.6720886 2.795166c0.52630615 1.0083008 0.78948975 2.144226 0.78948975 3.4078064c0 0.99554443 -0.20245361 1.9336548 -0.6072998 2.8143005c-0.4048767 0.88067627 -0.99191284 1.6847839 -1.7611389 2.4122925c-1.2550659 1.1869812 -2.9959717 2.1186829 -5.222687 2.795166c-2.2267456 0.6636658 -4.8380737 0.9955139 -7.8340454 0.9955139c-1.902832 0 -3.8259277 -0.19143677 -5.7692566 -0.5743408c-1.9433289 -0.38290405 -3.7044678 -1.0338135 -5.2834167 -1.9527893c-1.6194458 -0.9189453 -2.9689636 -2.1250916 -4.0486145 -3.6184082c-1.0661316 -1.4932861 -1.6801453 -3.3312073 -1.842102 -5.513733l-11.234863 0c0 2.6419983 0.63427734 5.1882935 1.902832 7.6388245c1.282074 2.4505615 3.1376648 4.594818 5.5668335 6.4327393c2.3886719 1.8761902 5.3239136 3.3822632 8.805695 4.518219c3.4818115 1.123169 7.4494324 1.6847534 11.902893 1.6847534c3.8866577 0 7.4696655 -0.44033813 10.749023 -1.3210144c3.279358 -0.88067627 6.0931396 -2.1250916 8.441345 -3.7332764c2.348175 -1.6081848 4.1767883 -3.541809 5.48584 -5.800934c1.3225403 -2.2590942 1.9838257 -4.76709 1.9838257 -7.5239563c0 -2.5654297 -0.58032227 -4.8245544 -1.7409058 -6.7773438c-1.1470947 -1.9527893 -2.8137817 -3.6758423 -5.0000305 -5.1691284c-2.1862488 -1.4550171 -4.8785706 -2.705841 -8.076935 -3.752411c-3.1983948 -1.0593872 -6.8218994 -1.9910889 -10.870514 -2.795166c-3.0769348 -0.57437134 -5.6207886 -1.1678467 -7.631592 -1.7804871c-1.9973145 -0.6126404 -3.5830078 -1.3018799 -4.7571106 -2.0676575c-1.2145691 -0.7658081 -2.0647888 -1.6273499 -2.5506287 -2.5845947c-0.48580933 -0.9572449 -0.72872925 -2.0484924 -0.72872925 -3.2737732c0 -1.1870117 0.3036499 -2.3356934 0.9109192 -3.446106c0.6072998 -1.1104126 1.518219 -2.086792 2.7328186 -2.9291687c1.1740723 -0.8424072 2.6585693 -1.5124817 4.4534607 -2.0102234c1.8083801 -0.49777222 3.9068909 -0.7466736 6.2955627 -0.7466736c2.3077087 0 4.379242 0.30633545 6.2145996 0.91897583c1.848877 0.6126404 3.4210815 1.4167175 4.716614 2.412262c1.2955627 0.99554443 2.3077087 2.137848 3.0364685 3.426941c0.72872925 1.2763367 1.0931091 2.5845642 1.0931091 3.9247131l11.234863 0c0 -2.718567 -0.6207886 -5.2521057 -1.8623657 -7.6005554c-1.2280579 -2.361206 -2.975708 -4.4224854 -5.24292 -6.1838226c-2.267212 -1.7613373 -5.0202637 -3.1397705 -8.259155 -4.135315c-3.238861 -0.9955292 -6.882599 -1.4933014 -10.931213 -1.4933014z" fill-rule="evenodd"/><path stroke="#ffffff" stroke-width="4.0" stroke-linejoin="round" stroke-linecap="butt" d="m414.93356 225.30183l0 88.22008l11.295593 0l0 -21.480652l8.259155 -7.523987l24.109406 29.004639l14.271301 0l-30.668152 -36.241455l26.599304 -25.903152l-13.664032 0l-21.558777 20.446854l-7.3482056 7.466522l0 -53.988846z" fill-rule="evenodd"/><path stroke="#ffffff" stroke-width="4.0" stroke-linejoin="round" stroke-linecap="butt" d="m562.0799 229.89664l0 83.625275l10.5668335 0l0 -38.653717l36.25525 0l0 38.653717l10.627563 0l0 -83.625275l-10.627563 0l0 35.954285l-36.25525 0l0 -35.954285z" fill-rule="evenodd"/><path stroke="#ffffff" stroke-width="4.0" stroke-linejoin="round" stroke-linecap="butt" d="m665.37994 258.9587c3.1173706 0 5.83667 0.6253967 8.157898 1.8762207c2.3346558 1.2380371 4.291504 2.9100342 5.8704834 5.015991c1.5384521 2.1059265 2.6990356 4.55011 3.4817505 7.3325195c0.79626465 2.7696533 1.194397 5.6669006 1.194397 8.6918335l0 1.2635498c0 3.063202 -0.38464355 5.9859924 -1.1538696 8.768402c-0.7692261 2.7696533 -1.9230957 5.207428 -3.4615479 7.313385c-1.5789795 2.105957 -3.5358276 3.771576 -5.8704834 4.9968567c-2.321228 1.2252808 -5.0202637 1.8378906 -8.097229 1.8378906c-3.1173706 0 -5.8502197 -0.61260986 -8.198364 -1.8378906c-2.3482056 -1.2252808 -4.291565 -2.8908997 -5.830017 -4.9968567c-1.5789185 -2.105957 -2.7530518 -4.5437317 -3.5222778 -7.313385c-0.7692261 -2.7824097 -1.1538696 -5.7052 -1.1538696 -8.768402l0 -1.2635498c0 -3.0249329 0.38464355 -5.92218 1.1538696 -8.6918335c0.7692261 -2.7824097 1.9433594 -5.226593 3.5222778 -7.3325195c1.5384521 -2.105957 3.4615479 -3.777954 5.769287 -5.015991c2.3076782 -1.250824 5.0202637 -1.8762207 8.137695 -1.8762207zm0 -8.730103c-4.6154175 0 -8.765259 0.81684875 -12.449463 2.4505615c-3.6842651 1.6209412 -6.8016357 3.8481445 -9.352295 6.6815796c-2.5910645 2.8334656 -4.57489 6.1774597 -5.951416 10.031982c-1.3765259 3.8417664 -2.0648193 8.002594 -2.0648193 12.482544l0 1.2635498c0 4.4799194 0.68829346 8.634399 2.0648193 12.463379c1.3765259 3.82901 3.3603516 7.160248 5.951416 9.993683c2.5506592 2.8334656 5.6748047 5.054291 9.372498 6.6624756c3.7112427 1.6081543 7.8947754 2.412262 12.550659 2.412262c4.6154175 0 8.765259 -0.80410767 12.449463 -2.412262c3.684204 -1.6081848 6.8218994 -3.82901 9.413025 -6.6624756c2.5505981 -2.833435 4.51416 -6.164673 5.890686 -9.993683c1.3765259 -3.8289795 2.0647583 -7.9834595 2.0647583 -12.463379l0 -1.2635498c0 -4.47995 -0.6882324 -8.640778 -2.0647583 -12.482544c-1.3765259 -3.8545227 -3.340088 -7.198517 -5.890686 -10.031982c-2.5911255 -2.833435 -5.7423096 -5.0606384 -9.453491 -6.6815796c-3.697754 -1.6337128 -7.8745117 -2.4505615 -12.5303955 -2.4505615z" fill-rule="evenodd"/><path stroke="#ffffff" stroke-width="4.0" stroke-linejoin="round" stroke-linecap="butt" d="m731.9389 250.2286c-3.0769653 0.0382843 -5.701782 0.67007446 -7.8745728 1.8953552c-2.1592407 1.2252808 -3.9068604 2.929184 -5.24292 5.1116943l-0.3036499 -5.8583527l-10.080994 0l0 62.144608l10.688293 0l0 -49.451477c0.24291992 -0.6126404 0.5532837 -1.1870117 0.9312134 -1.723053c0.39135742 -0.5360718 0.8501587 -1.014679 1.3765259 -1.4358826c0.6882324 -0.53604126 1.5249634 -0.9444885 2.5101318 -1.2252808c0.9985962 -0.29354858 2.1659546 -0.44033813 3.5020142 -0.44033813c1.2145996 0 2.2739258 0.14678955 3.1781616 0.44033813c0.9176636 0.28079224 1.6801758 0.72750854 2.2874146 1.3401489c0.64782715 0.65093994 1.1201172 1.4741821 1.4170532 2.469696c0.31036377 0.99554443 0.46557617 2.1442566 0.46557617 3.446106l0 46.579742l10.688293 0l0 -46.52231c0 -0.22973633 0 -0.42755127 0 -0.59347534c0 -0.17871094 0 -0.36376953 0 -0.5552063c0.12145996 -0.9572754 0.36437988 -1.8251648 0.72875977 -2.6037292c0.36437988 -0.7913208 0.87042236 -1.4933167 1.5181885 -2.105957c0.64782715 -0.5743408 1.4575195 -1.0338135 2.4291992 -1.378418c0.9716797 -0.344635 2.1254883 -0.51693726 3.4615479 -0.51693726c1.2550659 0 2.3549194 0.15316772 3.2996216 0.45950317c0.9581299 0.30630493 1.7611084 0.7657776 2.4088745 1.378418c0.6072998 0.65093994 1.072876 1.4741821 1.3967896 2.469696c0.32391357 0.99554443 0.48583984 2.1442566 0.48583984 3.446106l0 46.52231l10.688293 0l0 -46.40744c0 -2.9866028 -0.36437988 -5.5775757 -1.0931396 -7.7728577c-0.72869873 -2.2080383 -1.7813721 -4.001297 -3.157898 -5.3797455c-1.2550659 -1.2252655 -2.793518 -2.1506042 -4.6154175 -2.7760162c-1.8218384 -0.63816833 -3.866394 -0.9572449 -6.133606 -0.9572449c-1.6599121 0.0382843 -3.1916504 0.24888611 -4.595154 0.6317749c-1.3900146 0.38290405 -2.6518555 0.89982605 -3.7854614 1.5507507c-0.89068604 0.5743408 -1.7206421 1.2444153 -2.4898682 2.0102234c-0.7692261 0.76579285 -1.4372559 1.5890198 -2.0040894 2.469696c-0.4453125 -0.9572449 -0.9851074 -1.8187714 -1.6193848 -2.5845642c-0.6207886 -0.7658081 -1.3157959 -1.4167328 -2.085083 -1.9527893c-1.0526123 -0.68922424 -2.2807007 -1.2125092 -3.684204 -1.5698853c-1.3900146 -0.3701477 -2.9554443 -0.5552063 -4.69635 -0.5552063z" fill-rule="evenodd"/><path stroke="#ffffff" stroke-width="4.0" stroke-linejoin="round" stroke-linecap="butt" d="m815.5627 258.9587c2.8745117 0 5.350952 0.49777222 7.429199 1.4933167c2.0917969 0.99554443 3.8259277 2.2973938 5.2024536 3.9055786c1.3765259 1.6081848 2.4494019 3.5162964 3.218628 5.7243347c0.7692261 2.1953125 1.1538696 4.250183 1.1538696 6.1647034l0 0.51690674l-35.3443 0c0.44537354 -2.8717346 1.2213135 -5.4052734 2.327942 -7.6005554c1.1201172 -2.2080688 2.4899292 -4.077881 4.109375 -5.609497c1.6193848 -1.4932861 3.4412842 -2.629242 5.465576 -3.4078064c2.024292 -0.7913208 4.170044 -1.1869812 6.437256 -1.1869812zm0 -8.730103c-3.7651978 0 -7.442688 0.72750854 -11.03241 2.1825256c-3.576294 1.4550171 -6.7611694 3.5418243 -9.5546875 6.2604065c-2.8340454 2.7568665 -5.1012573 6.1200256 -6.8016357 10.0894165c-1.7004395 3.9566345 -2.5506592 8.442932 -2.5506592 13.458923l0 2.412262c0 4.3267517 0.7692261 8.328064 2.3077393 12.003906c1.5384521 3.6758423 3.684204 6.8539124 6.437256 9.53421c2.7530518 2.6802979 6.059387 4.76709 9.919067 6.2604065c3.873169 1.4932861 8.117432 2.2399597 12.732849 2.2399597c6.3967896 0 11.767944 -1.2125244 16.113403 -3.6375427c4.359009 -2.4378052 7.631653 -5.226593 9.817871 -8.366364l-6.8623657 -5.054291c-2.0648193 2.5271606 -4.655884 4.5565186 -7.7733154 6.0881042c-3.1174316 1.5316162 -6.680176 2.2973938 -10.688293 2.2973938c-3.036438 0 -5.8097534 -0.53604126 -8.319885 -1.6081543c-2.5101318 -1.0721436 -4.655884 -2.5462952 -6.437256 -4.422516c-1.7409058 -1.761322 -3.1107178 -3.79068 -4.109375 -6.0881042c-0.9851074 -2.2973938 -1.6193848 -4.9585266 -1.902832 -7.983429l0 -0.4020691l46.943542 0l0 -4.76709c0 -4.326782 -0.58032227 -8.3471985 -1.7409058 -12.06134c-1.1470947 -3.7141418 -2.8947754 -6.9496155 -5.24292 -9.706512c-2.3482056 -2.718567 -5.296936 -4.850052 -8.846191 -6.3944244c-3.5357666 -1.5571136 -7.672119 -2.335678 -12.408997 -2.335678z" fill-rule="evenodd"/></g><g filter="url(#shadowFilter-p.3)"><use xlink:href="#p.3" transform="matrix(1.0 0.0 0.0 1.0 0.0 2.0)"/></g><defs><filter id="shadowFilter-p.3" filterUnits="userSpaceOnUse"><feGaussianBlur in="SourceAlpha" stdDeviation="2.0" result="blur"/><feComponentTransfer in="blur" color-interpolation-filters="sRGB"><feFuncR type="linear" slope="0" intercept="0.0"/><feFuncG type="linear" slope="0" intercept="0.0"/><feFuncB type="linear" slope="0" intercept="0.0"/><feFuncA type="linear" slope="0.5" intercept="0"/></feComponentTransfer></filter></defs><g id="p.3"><path fill="#000000" fill-opacity="0.0" d="m72.215225 115.538055l0 130.96063l169.48032 -130.96063z" fill-rule="evenodd"/><path stroke="#ffffff" stroke-width="12.0" stroke-linejoin="round" stroke-linecap="butt" d="m72.215225 115.538055l0 130.96063l169.48032 -130.96063z" fill-rule="evenodd"/></g><g filter="url(#shadowFilter-p.4)"><use xlink:href="#p.4" transform="matrix(1.0 0.0 0.0 1.0 0.0 2.0)"/></g><defs><filter id="shadowFilter-p.4" filterUnits="userSpaceOnUse"><feGaussianBlur in="SourceAlpha" stdDeviation="2.0" result="blur"/><feComponentTransfer in="blur" color-interpolation-filters="sRGB"><feFuncR type="linear" slope="0" intercept="0.0"/><feFuncG type="linear" slope="0" intercept="0.0"/><feFuncB type="linear" slope="0" intercept="0.0"/><feFuncA type="linear" slope="0.5" intercept="0"/></feComponentTransfer></filter></defs><g id="p.4"><path fill="#000000" fill-opacity="0.0" d="m364.5643 502.25723l169.48032 0l0 -130.96063l-169.48032 0zm16.370087 -16.370087l0 -98.22049l136.74017 0l0 98.22049z" fill-rule="evenodd"/><path stroke="#ffffff" stroke-width="12.0" stroke-linejoin="round" stroke-linecap="butt" d="m364.5643 502.25723l169.48032 0l0 -130.96063l-169.48032 0zm16.370087 -16.370087l0 -98.22049l136.74017 0l0 98.22049z" fill-rule="evenodd"/></g></g></svg>
